<?xml version="1.0" encoding="UTF-8"?>
<svg id="Ebene_1" data-name="Ebene 1" xmlns="http://www.w3.org/2000/svg" viewBox="0 0 706.84 168.23">
  <defs>
    <style>
      .cls-1 {
        fill: gray;
      }

      .cls-2 {
        fill: #00c200;
      }

      .cls-2, .cls-3, .cls-4, .cls-5, .cls-6 {
        fill-rule: evenodd;
      }

      .cls-3 {
        fill: #ff0080;
      }

      .cls-4 {
        fill: #2161a1;
      }

      .cls-5 {
        fill: red;
      }

      .cls-6, .cls-7 {
        fill: silver;
      }

      .cls-8 {
        fill: #004080;
      }
    </style>
  </defs>
  <path class="cls-6" d="M599.33,28.03v2.67h15.86v30.22h-30.4v-30.22h9.74v-2.67h-45.28v134.01h134.01V28.03h-83.93ZM680.6,60.91h-30.34v-30.22h30.34v30.22ZM551.92,96.21h30.54v30.63h-30.54v-30.63ZM551.92,93.87v-30.62h30.54v30.62h-30.54ZM584.79,96.21h30.4v30.63h-30.4v-30.63ZM615.19,129.16v30.21h-30.4v-30.21h30.4ZM617.53,129.16h30.4v30.21h-30.4v-30.21ZM617.53,126.83v-30.63h30.4v30.63h-30.4ZM617.53,93.87v-30.62h30.4v30.62h-30.4ZM650.26,96.21h30.34v30.63h-30.34v-30.63ZM680.6,93.87h-30.34v-30.62h30.34v30.62ZM617.53,30.7h30.4v30.22h-30.4v-30.22ZM615.19,63.25v30.62h-30.4v-30.62h30.4ZM582.46,30.7v30.22h-30.54v-30.22h30.54ZM551.92,129.16h30.54v30.21h-30.54v-30.21ZM650.26,159.37v-30.21h30.34v30.21h-30.34Z"/>
  <path class="cls-2" d="M663.27,33.84c4.05,0,7.33,3.28,7.33,7.33s-3.28,7.33-7.33,7.33-7.33-3.28-7.33-7.33,3.28-7.33,7.33-7.33"/>
  <path class="cls-3" d="M649.06,54.75c4.05,0,7.33,3.28,7.33,7.33s-3.28,7.33-7.33,7.33-7.33-3.29-7.33-7.33,3.28-7.33,7.33-7.33"/>
  <path class="cls-4" d="M616.33,120.64c4.05,0,7.33,3.28,7.33,7.33s-3.28,7.33-7.33,7.33-7.33-3.28-7.33-7.33,3.28-7.33,7.33-7.33"/>
  <path class="cls-2" d="M583.64,155.07c3.13,0,5.67,2.54,5.67,5.67s-2.54,5.67-5.67,5.67-5.67-2.54-5.67-5.67,2.54-5.67,5.67-5.67"/>
  <path class="cls-5" d="M616.34,79.02c8.84,0,16,7.16,16,16s-7.16,16-16,16-16-7.17-16-16,7.17-16,16-16"/>
  <polygon class="cls-1" points="706.84 94.41 687.91 85.04 687.91 91.73 618.39 91.73 598 13.23 594.56 0 592.79 13.55 584.93 73.73 578.37 38.59 575.69 24.21 573.13 38.61 557.92 124.29 538.28 124.29 538.28 129.62 560.16 129.62 562.39 129.62 562.78 127.41 575.83 53.94 582.77 91.19 585.85 107.69 588.02 91.05 596.29 27.8 613.76 95.06 614.28 97.06 616.34 97.06 687.91 97.06 687.91 103.79 706.84 94.41"/>
  <path class="cls-8" d="M631.44,109.91c0-1.46.48-2.69,1.45-3.7.97-1.01,3.01-1.51,4.62-1.51,1.51,0,3.44.46,4.45,1.37,1.01.92,1.52,2.2,1.52,3.84v13.23c5.27-5.43,10.8-13.83,17.07-17.91,1.89-1.23,5.06-.55,6.68.88,1.81,1.6,2.24,5,.89,6.97-3.52,5.11-9.63,10.5-13.77,15.43l14.74,16.32c.87.97,2.35,3.57,2.22,6.02-.09,1.64-.55,2.86-1.66,3.66-1.11.8-2.4,1.2-3.86,1.2-2.39,0-4.25-1.24-5.76-2.84l-16.54-17.54v15.31c0,1.36-.48,2.55-1.45,3.56-.97,1.01-2.92,1.51-4.52,1.51-1.51,0-3.53-.46-4.55-1.37-1.01-.92-1.52-2.15-1.52-3.7v-40.72Z"/>
  <path d="M7.12,38.73c.1-.66.37-1.34.8-2.05.43-.71.96-1.34,1.59-1.89.63-.56,1.38-1.01,2.24-1.36.86-.35,1.79-.53,2.8-.53,1.92,0,3.56.57,4.92,1.7,1.36,1.14,2.25,2.39,2.65,3.75l8.94,30.01h.15l8.94-30.01c.4-1.36,1.29-2.61,2.65-3.75,1.36-1.14,3.01-1.7,4.93-1.7,1.01,0,1.94.18,2.8.53.86.35,1.6.81,2.23,1.36.63.56,1.16,1.19,1.59,1.89.43.71.69,1.39.8,2.05l7.05,42.28c.05.25.08.48.08.68v.61c0,1.67-.53,2.99-1.59,3.98-1.06.99-2.35,1.48-3.86,1.48-1.92,0-3.32-.44-4.21-1.33-.88-.88-1.45-2.21-1.7-3.98l-4.47-30.84h-.15l-9.09,31.75c-.15.45-.35.93-.61,1.44-.25.5-.62.98-1.1,1.44-.48.45-1.07.82-1.78,1.1-.71.28-1.57.42-2.58.42s-1.87-.14-2.58-.42c-.71-.28-1.3-.64-1.78-1.1-.48-.46-.85-.93-1.1-1.44-.25-.51-.46-.99-.61-1.44l-9.09-31.75h-.15l-4.47,30.84c-.25,1.77-.82,3.09-1.71,3.98s-2.29,1.33-4.21,1.33c-1.52,0-2.8-.49-3.86-1.48C.53,85.29,0,83.96,0,82.3v-.61C0,81.49.02,81.26.08,81.01l7.05-42.28ZM70.38,82.3c0-1.62.58-3.01,1.74-4.17,1.16-1.16,2.55-1.74,4.17-1.74s3,.58,4.17,1.74c1.16,1.16,1.74,2.55,1.74,4.17s-.58,3-1.74,4.17c-1.16,1.16-2.55,1.74-4.17,1.74s-3.01-.58-4.17-1.74c-1.16-1.16-1.74-2.55-1.74-4.17M104.06,38.5c0-1.57.52-2.89,1.55-3.98,1.04-1.09,2.41-1.63,4.13-1.63,1.62,0,2.97.49,4.05,1.48,1.09.98,1.63,2.36,1.63,4.13v16.37l18.64-19.85c.4-.45.97-.92,1.7-1.4.73-.48,1.63-.72,2.69-.72,1.46,0,2.77.51,3.9,1.52,1.14,1.01,1.71,2.32,1.71,3.94,0,1.01-.3,1.96-.91,2.84-.61.88-1.54,1.96-2.8,3.22l-14.32,14.09,17.5,18.26c.91.91,1.67,1.81,2.27,2.69.61.88.91,1.91.91,3.07,0,1.77-.59,3.08-1.78,3.94-1.19.86-2.56,1.29-4.13,1.29-1.11,0-2.08-.3-2.92-.91-.83-.61-1.78-1.49-2.84-2.65l-19.62-21.22v19.32c0,1.46-.52,2.74-1.55,3.83-1.03,1.09-2.41,1.63-4.13,1.63-1.62,0-2.97-.49-4.05-1.48-1.09-.99-1.63-2.31-1.63-3.98v-43.8ZM170.05,56.08c-1.52,0-2.82.34-3.9,1.02-1.09.68-1.98,1.55-2.69,2.61-.71,1.06-1.23,2.25-1.55,3.56-.33,1.31-.49,2.63-.49,3.94s.18,2.63.53,3.94.88,2.49,1.59,3.52c.71,1.04,1.6,1.88,2.69,2.54,1.09.66,2.36.98,3.83.98s2.74-.33,3.83-.98c1.09-.66,1.98-1.5,2.69-2.54.71-1.04,1.24-2.21,1.59-3.52s.53-2.63.53-3.94-.17-2.63-.49-3.94c-.33-1.31-.85-2.5-1.55-3.56-.71-1.06-1.6-1.93-2.69-2.61-1.09-.68-2.39-1.02-3.9-1.02M170.05,46.08c2.88,0,5.52.58,7.92,1.74,2.4,1.16,4.46,2.72,6.17,4.66,1.72,1.95,3.06,4.19,4.02,6.74.96,2.55,1.44,5.22,1.44,7.99s-.47,5.52-1.4,8.07c-.93,2.55-2.26,4.79-3.98,6.71-1.72,1.92-3.78,3.43-6.18,4.55-2.4,1.11-5.06,1.67-7.99,1.67s-5.59-.56-7.99-1.67c-2.4-1.11-4.46-2.63-6.18-4.55-1.72-1.92-3.04-4.15-3.98-6.71-.93-2.55-1.4-5.24-1.4-8.07s.48-5.44,1.44-7.99c.96-2.55,2.3-4.8,4.02-6.74,1.72-1.94,3.78-3.5,6.17-4.66,2.4-1.16,5.04-1.74,7.92-1.74M196.1,51.99c0-1.82.59-3.18,1.78-4.09,1.19-.91,2.46-1.36,3.83-1.36,1.46,0,2.71.32,3.75.95,1.04.63,1.55,1.83,1.55,3.6h.15c1.01-1.52,2.11-2.65,3.3-3.41,1.19-.76,2.64-1.14,4.36-1.14,1.31,0,2.53.48,3.64,1.44,1.11.96,1.67,2.42,1.67,4.39,0,.91-.19,1.62-.57,2.12-.38.51-.87.94-1.48,1.29-.61.35-1.3.67-2.08.95-.78.28-1.58.59-2.39.95-.81.4-1.6.79-2.39,1.17-.78.38-1.49.85-2.12,1.4-.63.56-1.14,1.21-1.52,1.97-.38.76-.57,1.67-.57,2.73v16.74c0,1.82-.51,3.28-1.52,4.39-1.01,1.11-2.32,1.67-3.94,1.67s-2.93-.55-3.94-1.67c-1.01-1.11-1.52-2.58-1.52-4.39v-29.7Z"/>
  <path d="M234.03,56.53h-2.42c-1.46,0-2.63-.43-3.49-1.29-.86-.86-1.29-2.02-1.29-3.48,0-1.36.45-2.5,1.36-3.41.91-.91,2.05-1.36,3.41-1.36h2.42v-5.61c0-4.04,1.07-7.12,3.22-9.24,2.15-2.12,4.89-3.18,8.22-3.18.96,0,1.89.08,2.8.23.91.15,1.72.42,2.42.79.71.38,1.28.88,1.71,1.52.43.63.64,1.43.64,2.39,0,3.08-1.49,4.62-4.47,4.62-.45,0-.9.03-1.33.08-.43.05-.82.2-1.17.46-.35.25-.63.64-.83,1.17-.2.53-.3,1.3-.3,2.31v4.47h3.41c1.62,0,2.94.35,3.98,1.06,1.04.71,1.55,1.94,1.55,3.71s-.52,2.94-1.55,3.67c-1.04.73-2.36,1.1-3.98,1.1h-3.41v25.16c0,1.82-.5,3.28-1.52,4.39-1.01,1.11-2.32,1.67-3.94,1.67s-2.93-.55-3.94-1.67c-1.01-1.11-1.52-2.58-1.52-4.39v-25.16ZM258.22,52.59c0-1.82.5-3.28,1.51-4.39,1.01-1.11,2.32-1.67,3.94-1.67,1.41,0,2.55.35,3.41,1.06.86.71,1.39,1.72,1.59,3.03,1.31-1.46,2.83-2.59,4.55-3.37,1.72-.78,3.59-1.17,5.61-1.17,4.6,0,8.36,1.84,11.29,5.53,1.52-1.77,3.35-3.13,5.49-4.09,2.15-.96,4.16-1.44,6.02-1.44,4.44,0,8.04,1.25,10.8,3.75,2.75,2.5,4.13,6.15,4.13,10.95v20.91c0,1.82-.51,3.28-1.52,4.39-1.01,1.11-2.32,1.67-3.94,1.67s-2.93-.55-3.94-1.67c-1.01-1.11-1.52-2.58-1.52-4.39v-19.02c0-2.22-.57-4.03-1.7-5.42-1.14-1.39-2.69-2.08-4.66-2.08s-3.6.69-4.74,2.08c-1.14,1.39-1.7,3.19-1.7,5.42v19.02c0,1.82-.51,3.28-1.52,4.39-1.01,1.11-2.32,1.67-3.94,1.67s-2.93-.55-3.94-1.67c-1.01-1.11-1.52-2.58-1.52-4.39v-19.02c0-2.22-.57-4.03-1.71-5.42-1.14-1.39-2.69-2.08-4.66-2.08-2.27,0-3.91.69-4.92,2.08-1.01,1.39-1.52,3.19-1.52,5.42v19.02c0,1.82-.51,3.28-1.52,4.39-1.01,1.11-2.32,1.67-3.94,1.67s-2.93-.55-3.94-1.67c-1.01-1.11-1.51-2.58-1.51-4.39v-29.1ZM336.36,67.22c0,1.31.18,2.63.53,3.94.35,1.31.88,2.49,1.59,3.52.71,1.04,1.6,1.88,2.69,2.54,1.09.66,2.36.98,3.83.98s2.65-.33,3.71-.98c1.06-.66,1.93-1.5,2.61-2.54.68-1.04,1.2-2.21,1.55-3.52s.53-2.63.53-3.94-.16-2.63-.49-3.94c-.33-1.31-.85-2.5-1.55-3.56-.71-1.06-1.59-1.93-2.65-2.61-1.06-.68-2.3-1.02-3.71-1.02-1.52,0-2.82.34-3.9,1.02-1.09.68-1.98,1.55-2.69,2.61-.71,1.06-1.23,2.25-1.55,3.56-.33,1.31-.49,2.63-.49,3.94M364.32,80.63c0,.71-.03,1.48-.08,2.31-.05.83-.24,1.6-.57,2.31-.33.71-.85,1.3-1.55,1.78-.71.48-1.72.72-3.03.72-1.62,0-2.79-.4-3.52-1.21-.73-.81-1.3-1.94-1.71-3.41-2.83,3.38-6.29,5.08-10.38,5.08-2.58,0-4.96-.52-7.16-1.55-2.2-1.04-4.1-2.48-5.72-4.32-1.62-1.84-2.88-4.05-3.79-6.63-.91-2.58-1.36-5.4-1.36-8.49s.47-5.76,1.4-8.33c.93-2.58,2.22-4.81,3.86-6.71,1.64-1.89,3.55-3.38,5.72-4.47,2.17-1.09,4.52-1.63,7.05-1.63,2.02,0,3.95.4,5.8,1.21,1.84.81,3.37,2.07,4.58,3.79.15-1.31.73-2.4,1.74-3.26,1.01-.86,2.17-1.29,3.49-1.29s2.32.24,3.03.72c.71.48,1.22,1.07,1.55,1.78.33.71.52,1.48.57,2.31.05.83.08,1.6.08,2.31v26.98ZM406.09,52.97c0,.56-.1,1.15-.3,1.78-.2.63-.48,1.2-.83,1.7-.35.51-.78.92-1.29,1.25-.51.33-1.09.49-1.74.49-.71,0-1.39-.11-2.05-.34-.66-.23-1.33-.47-2.01-.72-.68-.25-1.4-.49-2.16-.72-.76-.23-1.57-.34-2.42-.34-1.57,0-2.92.32-4.05.95-1.14.63-2.08,1.46-2.84,2.5-.76,1.04-1.33,2.22-1.71,3.56-.38,1.34-.57,2.71-.57,4.13s.2,2.7.61,4.02c.4,1.31,1,2.49,1.78,3.52.78,1.04,1.74,1.87,2.88,2.5,1.14.63,2.44.95,3.9.95.66,0,1.4-.11,2.24-.34.83-.23,1.63-.49,2.39-.8.76-.3,1.45-.57,2.08-.8.63-.23,1.1-.34,1.4-.34,1.31,0,2.43.47,3.33,1.4.91.94,1.36,2.06,1.36,3.37,0,1.41-.5,2.6-1.51,3.56-1.01.96-2.24,1.73-3.67,2.31-1.44.58-2.92,1-4.43,1.25-1.51.25-2.75.38-3.71.38-2.93,0-5.59-.56-7.99-1.67-2.4-1.11-4.46-2.63-6.17-4.55-1.72-1.92-3.04-4.15-3.98-6.71-.94-2.55-1.4-5.24-1.4-8.07s.48-5.44,1.44-7.99c.96-2.55,2.3-4.8,4.02-6.74,1.72-1.94,3.78-3.5,6.17-4.66,2.4-1.16,5.04-1.74,7.92-1.74,1.06,0,2.36.11,3.9.34,1.54.23,3,.61,4.39,1.14,1.39.53,2.58,1.24,3.56,2.12.98.88,1.48,1.98,1.48,3.3M414.14,35.01c0-1.82.51-3.28,1.52-4.4,1.01-1.11,2.32-1.67,3.94-1.67s2.93.56,3.94,1.67c1.01,1.11,1.51,2.58,1.51,4.4v14.85h.15c1.16-1.41,2.68-2.4,4.55-2.95,1.87-.56,3.66-.83,5.38-.83,2.12,0,4.1.33,5.95.98,1.84.66,3.42,1.62,4.74,2.88,1.31,1.26,2.35,2.8,3.11,4.62.76,1.82,1.14,3.89,1.14,6.21v20.91c0,1.82-.5,3.28-1.52,4.39-1.01,1.11-2.32,1.67-3.94,1.67s-2.93-.55-3.94-1.67c-1.01-1.11-1.51-2.58-1.51-4.39v-19.02c0-2.58-.7-4.47-2.08-5.68-1.39-1.21-3.07-1.82-5.04-1.82-2.27,0-4,.72-5.19,2.16-1.19,1.44-1.78,3.22-1.78,5.34v19.02c0,1.82-.5,3.28-1.51,4.39-1.01,1.11-2.32,1.67-3.94,1.67s-2.93-.55-3.94-1.67c-1.01-1.11-1.52-2.58-1.52-4.39v-46.67ZM486.45,63.5c-.3-2.43-1.19-4.42-2.65-5.99-1.46-1.57-3.49-2.35-6.06-2.35-2.42,0-4.41.81-5.95,2.42-1.54,1.62-2.44,3.59-2.69,5.91h17.35ZM469.33,70.78c.4,2.73,1.58,4.72,3.52,5.99,1.94,1.26,4.21,1.89,6.78,1.89,1.41,0,2.71-.23,3.9-.68,1.19-.45,2.29-.96,3.3-1.51,1.01-.56,1.95-1.06,2.8-1.52.86-.46,1.64-.68,2.35-.68,1.16,0,2.2.49,3.11,1.48.91.98,1.36,2.06,1.36,3.22s-.54,2.3-1.63,3.41c-1.09,1.11-2.49,2.1-4.21,2.96-1.72.86-3.64,1.55-5.76,2.08-2.12.53-4.19.8-6.21.8-3.08,0-5.87-.53-8.37-1.59-2.5-1.06-4.65-2.52-6.44-4.39-1.79-1.87-3.18-4.08-4.17-6.63-.99-2.55-1.48-5.34-1.48-8.37,0-2.78.48-5.44,1.44-7.99.96-2.55,2.3-4.8,4.02-6.74,1.72-1.94,3.78-3.5,6.18-4.66,2.4-1.16,5.04-1.74,7.92-1.74s5.61.61,8.03,1.82c2.42,1.21,4.5,2.78,6.21,4.7,1.72,1.92,3.04,4.05,3.98,6.4.93,2.35,1.4,4.66,1.4,6.93,0,1.62-.38,2.83-1.14,3.64-.76.81-1.97,1.21-3.64,1.21h-23.26ZM505.34,51.99c0-1.82.59-3.18,1.78-4.09,1.19-.91,2.46-1.36,3.83-1.36,1.46,0,2.71.32,3.75.95,1.04.63,1.55,1.83,1.55,3.6h.15c1.01-1.52,2.11-2.65,3.3-3.41,1.19-.76,2.64-1.14,4.36-1.14,1.31,0,2.53.48,3.64,1.44,1.11.96,1.67,2.42,1.67,4.39,0,.91-.19,1.62-.57,2.12-.38.51-.87.94-1.48,1.29-.61.35-1.3.67-2.08.95-.78.28-1.58.59-2.39.95-.81.4-1.6.79-2.39,1.17s-1.49.85-2.12,1.4c-.63.56-1.14,1.21-1.52,1.97-.38.76-.57,1.67-.57,2.73v16.74c0,1.82-.5,3.28-1.51,4.39-1.01,1.11-2.32,1.67-3.94,1.67s-2.93-.55-3.94-1.67c-1.01-1.11-1.52-2.58-1.52-4.39v-29.7Z"/>
  <path d="M170.11,127.99v-21.7h8.18c1.44,0,2.54.07,3.3.21,1.07.18,1.96.51,2.68,1.01.72.5,1.3,1.2,1.74,2.09.44.9.66,1.88.66,2.96,0,1.84-.59,3.41-1.76,4.69-1.18,1.27-3.3,1.91-6.37,1.91h-5.57v8.82h-2.87ZM172.98,116.61h5.61c1.85,0,3.17-.34,3.95-1.04.78-.69,1.17-1.66,1.17-2.92,0-.91-.23-1.69-.69-2.33-.46-.65-1.06-1.07-1.81-1.28-.48-.13-1.37-.19-2.68-.19h-5.55v7.75ZM189.92,106.3h2.66v21.7h-2.66v-21.7ZM206.97,126.05c-.99.84-1.94,1.43-2.85,1.78-.91.34-1.89.51-2.94.51-1.73,0-3.05-.42-3.98-1.26-.93-.84-1.39-1.92-1.39-3.23,0-.77.17-1.47.52-2.11.35-.64.81-1.15,1.37-1.53.57-.38,1.21-.68,1.92-.87.52-.14,1.31-.27,2.37-.4,2.15-.26,3.74-.56,4.75-.92,0-.36.02-.59.02-.69,0-1.09-.25-1.85-.76-2.29-.68-.61-1.69-.9-3.03-.9-1.25,0-2.18.22-2.78.66-.6.44-1.03,1.22-1.32,2.33l-2.6-.36c.24-1.11.63-2.02,1.17-2.7.54-.69,1.33-1.22,2.35-1.59,1.03-.37,2.21-.55,3.57-.55s2.43.16,3.27.47c.84.32,1.45.71,1.85,1.19.39.48.67,1.08.83,1.81.09.45.13,1.27.13,2.45v3.55c0,2.48.06,4.05.17,4.7.11.66.34,1.29.67,1.89h-2.78c-.27-.55-.45-1.2-.53-1.94M206.75,120.1c-.97.4-2.42.73-4.35,1.01-1.1.16-1.87.33-2.32.53-.46.2-.81.49-1.05.87-.25.38-.37.8-.37,1.26,0,.71.27,1.3.81,1.78.54.47,1.32.71,2.36.71s1.94-.22,2.74-.67c.8-.45,1.39-1.07,1.76-1.84.29-.6.43-1.49.43-2.66v-.98ZM213.57,127.99v-15.71h2.39v2.23c1.16-1.73,2.82-2.59,5-2.59.95,0,1.82.17,2.61.51.8.34,1.39.79,1.78,1.34.4.55.67,1.21.83,1.96.1.49.15,1.36.15,2.59v9.66h-2.67v-9.56c0-1.08-.1-1.89-.31-2.43-.21-.54-.58-.96-1.1-1.28-.53-.32-1.15-.49-1.86-.49-1.14,0-2.11.36-2.94,1.08-.82.72-1.23,2.09-1.23,4.1v8.58h-2.66ZM240.73,127.99v-2.31c-1.23,1.78-2.89,2.66-4.99,2.66-.92,0-1.79-.18-2.6-.53-.8-.35-1.4-.8-1.79-1.34-.39-.54-.67-1.2-.82-1.98-.11-.53-.16-1.35-.16-2.49v-9.73h2.66v8.71c0,1.39.06,2.33.16,2.81.17.7.53,1.25,1.07,1.65.55.4,1.22.6,2.02.6s1.55-.2,2.25-.61c.7-.41,1.2-.97,1.48-1.67.29-.71.44-1.73.44-3.07v-8.42h2.66v15.71h-2.38ZM247.29,127.99v-15.71h2.4v2.23c1.16-1.73,2.82-2.59,5-2.59.95,0,1.82.17,2.61.51.8.34,1.39.79,1.78,1.34.4.55.67,1.21.83,1.96.1.49.15,1.36.15,2.59v9.66h-2.67v-9.56c0-1.08-.1-1.89-.31-2.43-.21-.54-.58-.96-1.1-1.28-.53-.32-1.15-.49-1.86-.49-1.14,0-2.11.36-2.94,1.08-.82.72-1.23,2.09-1.23,4.1v8.58h-2.66ZM263.65,129.3l2.59.38c.11.8.41,1.38.9,1.75.66.49,1.57.74,2.71.74,1.24,0,2.19-.25,2.86-.74.67-.5,1.12-1.19,1.36-2.07.14-.55.2-1.68.19-3.42-1.16,1.37-2.61,2.06-4.35,2.06-2.16,0-3.83-.78-5.02-2.34-1.18-1.56-1.78-3.43-1.78-5.61,0-1.5.27-2.88.81-4.15.55-1.27,1.33-2.25,2.36-2.94,1.03-.69,2.24-1.04,3.63-1.04,1.85,0,3.38.75,4.59,2.25v-1.89h2.46v13.58c0,2.44-.25,4.18-.75,5.2-.5,1.02-1.29,1.83-2.37,2.42-1.08.59-2.41.89-3.99.89-1.87,0-3.39-.42-4.54-1.27-1.16-.84-1.71-2.11-1.67-3.81M265.85,119.86c0,2.06.41,3.57,1.23,4.51.82.95,1.84,1.42,3.08,1.42s2.25-.47,3.08-1.41c.83-.94,1.24-2.42,1.24-4.43s-.42-3.37-1.28-4.35c-.85-.97-1.88-1.46-3.09-1.46s-2.19.48-3.02,1.45c-.83.96-1.24,2.39-1.24,4.28M279.93,123.3l2.63-.41c.15,1.06.56,1.86,1.24,2.43.67.56,1.62.84,2.83.84s2.13-.25,2.72-.75c.59-.5.89-1.09.89-1.75,0-.61-.26-1.08-.79-1.42-.36-.24-1.27-.54-2.72-.9-1.95-.5-3.31-.92-4.06-1.28-.75-.36-1.33-.86-1.72-1.5-.39-.64-.58-1.34-.58-2.11,0-.7.16-1.35.48-1.95.32-.6.76-1.1,1.31-1.49.41-.3.98-.57,1.69-.78.72-.21,1.48-.32,2.3-.32,1.23,0,2.31.18,3.25.54.93.35,1.62.83,2.07,1.44.44.61.75,1.42.91,2.44l-2.6.36c-.12-.81-.47-1.44-1.03-1.89-.57-.46-1.37-.68-2.4-.68-1.22,0-2.1.2-2.62.61-.53.4-.79.88-.79,1.42,0,.35.11.66.33.94.22.29.56.52,1.02.71.27.1,1.05.32,2.35.68,1.88.5,3.2.91,3.94,1.24.75.32,1.33.79,1.76,1.4.42.61.64,1.37.64,2.28s-.26,1.72-.78,2.51c-.52.78-1.27,1.39-2.24,1.82-.98.43-2.08.64-3.31.64-2.05,0-3.6-.42-4.67-1.27-1.07-.85-1.75-2.11-2.05-3.77M298.61,127.99h-2.47v-21.7h2.66v7.74c1.13-1.41,2.56-2.12,4.3-2.12.97,0,1.88.2,2.75.59.86.39,1.57.94,2.13,1.64.56.71,1,1.56,1.31,2.56.32,1,.47,2.06.47,3.19,0,2.7-.67,4.78-2,6.25-1.33,1.47-2.93,2.2-4.79,2.2s-3.31-.77-4.36-2.32v1.97ZM298.58,120.02c0,1.88.26,3.24.77,4.08.84,1.37,1.98,2.06,3.4,2.06,1.17,0,2.17-.5,3.02-1.52.85-1.01,1.27-2.52,1.27-4.52s-.41-3.57-1.22-4.54c-.81-.98-1.8-1.46-2.95-1.46s-2.17.5-3.02,1.51c-.85,1.01-1.27,2.47-1.27,4.39M323.31,127.99v-2.31c-1.23,1.78-2.89,2.66-4.99,2.66-.92,0-1.79-.18-2.6-.53-.8-.35-1.4-.8-1.79-1.34-.39-.54-.67-1.2-.82-1.98-.11-.53-.16-1.35-.16-2.49v-9.73h2.66v8.71c0,1.39.06,2.33.16,2.81.17.7.53,1.25,1.07,1.65.55.4,1.22.6,2.02.6s1.55-.2,2.25-.61c.7-.41,1.2-.97,1.48-1.67.29-.71.44-1.73.44-3.07v-8.42h2.66v15.71h-2.38ZM315.17,106.17h2.78v3.03h-2.78v-3.03ZM320.69,106.17h2.78v3.03h-2.78v-3.03ZM329.83,127.99v-15.71h2.39v2.38c.61-1.11,1.18-1.85,1.7-2.2.52-.35,1.09-.54,1.71-.54.9,0,1.81.29,2.74.86l-.92,2.47c-.65-.39-1.3-.58-1.95-.58-.59,0-1.11.18-1.57.53-.47.35-.79.84-.99,1.46-.3.94-.44,1.98-.44,3.11v8.23h-2.66ZM338.96,120.13c0-2.91.81-5.07,2.43-6.47,1.35-1.16,3-1.75,4.94-1.75,2.16,0,3.93.71,5.3,2.13,1.37,1.42,2.06,3.37,2.06,5.87,0,2.03-.3,3.62-.91,4.77-.61,1.16-1.49,2.06-2.65,2.7-1.16.64-2.42.96-3.8.96-2.2,0-3.98-.7-5.33-2.12-1.36-1.41-2.04-3.44-2.04-6.1M341.7,120.13c0,2.01.44,3.52,1.32,4.52.88,1,1.98,1.5,3.31,1.5s2.42-.5,3.3-1.51c.87-1.01,1.31-2.54,1.31-4.6,0-1.95-.44-3.42-1.32-4.42s-1.98-1.5-3.29-1.5-2.43.5-3.31,1.5c-.88,1-1.32,2.5-1.32,4.51M100.97,161.85v-21.7h4.32l5.13,15.36c.47,1.43.82,2.5,1.04,3.21.25-.79.63-1.95,1.16-3.48l5.19-15.09h3.87v21.7h-2.77v-18.16l-6.31,18.16h-2.59l-6.27-18.47v18.47h-2.77ZM136.73,156.79l2.75.34c-.43,1.61-1.24,2.86-2.41,3.75-1.18.88-2.68,1.33-4.5,1.33-2.3,0-4.12-.71-5.46-2.12-1.35-1.41-2.02-3.4-2.02-5.96s.68-4.7,2.04-6.16c1.36-1.46,3.13-2.19,5.3-2.19s3.82.72,5.15,2.15c1.33,1.43,2,3.45,2,6.04,0,.16,0,.4-.01.71h-11.72c.1,1.73.59,3.05,1.46,3.96.88.92,1.97,1.38,3.28,1.38.98,0,1.81-.26,2.5-.77.69-.51,1.24-1.33,1.64-2.46M127.98,152.48h8.77c-.12-1.32-.46-2.31-1-2.97-.85-1.03-1.95-1.54-3.3-1.54-1.22,0-2.25.41-3.09,1.23-.83.82-1.29,1.92-1.38,3.28M141.76,157.16l2.63-.41c.15,1.06.56,1.86,1.24,2.43.67.56,1.62.84,2.83.84s2.13-.25,2.72-.75c.59-.5.89-1.09.89-1.75,0-.61-.26-1.08-.79-1.42-.36-.24-1.27-.54-2.72-.9-1.95-.5-3.31-.92-4.06-1.28-.75-.36-1.33-.86-1.72-1.5-.39-.64-.59-1.34-.59-2.11,0-.7.16-1.35.48-1.94.32-.6.76-1.1,1.31-1.49.41-.3.98-.57,1.69-.78.72-.21,1.48-.32,2.3-.32,1.23,0,2.31.18,3.25.53.93.35,1.62.83,2.07,1.44.44.61.75,1.42.91,2.43l-2.6.36c-.12-.81-.47-1.44-1.03-1.89-.57-.46-1.37-.68-2.4-.68-1.22,0-2.1.2-2.62.61-.52.4-.79.88-.79,1.42,0,.35.11.66.33.93.22.29.56.52,1.02.71.27.1,1.05.32,2.35.68,1.88.5,3.2.91,3.94,1.24.75.32,1.33.79,1.76,1.4.42.61.64,1.37.64,2.28s-.26,1.72-.78,2.51c-.52.78-1.27,1.39-2.24,1.82-.98.43-2.08.64-3.31.64-2.05,0-3.6-.42-4.67-1.27-1.07-.85-1.75-2.11-2.04-3.77M156.92,157.16l2.63-.41c.15,1.06.56,1.86,1.24,2.43.67.56,1.62.84,2.83.84s2.13-.25,2.72-.75c.59-.5.89-1.09.89-1.75,0-.61-.26-1.08-.79-1.42-.36-.24-1.27-.54-2.72-.9-1.95-.5-3.31-.92-4.06-1.28-.75-.36-1.33-.86-1.72-1.5-.39-.64-.59-1.34-.59-2.11,0-.7.16-1.35.48-1.94.32-.6.76-1.1,1.31-1.49.41-.3.98-.57,1.69-.78.72-.21,1.49-.32,2.3-.32,1.23,0,2.31.18,3.25.53.94.35,1.62.83,2.07,1.44.44.61.75,1.42.91,2.43l-2.6.36c-.12-.81-.46-1.44-1.03-1.89-.57-.46-1.37-.68-2.4-.68-1.22,0-2.1.2-2.62.61-.53.4-.79.88-.79,1.42,0,.35.11.66.33.93.22.29.56.52,1.02.71.27.1,1.05.32,2.35.68,1.88.5,3.2.91,3.94,1.24.75.32,1.33.79,1.76,1.4.42.61.64,1.37.64,2.28s-.26,1.72-.78,2.51c-.52.78-1.27,1.39-2.24,1.82-.97.43-2.08.64-3.31.64-2.05,0-3.6-.42-4.67-1.27-1.07-.85-1.75-2.11-2.04-3.77M172.09,152.66h8.19v2.68h-8.19v-2.68ZM201.95,161.85v-2.31c-1.23,1.78-2.89,2.66-4.99,2.66-.92,0-1.79-.18-2.6-.53-.8-.35-1.4-.8-1.79-1.34-.39-.54-.67-1.2-.82-1.98-.11-.53-.16-1.35-.16-2.49v-9.73h2.66v8.71c0,1.39.06,2.33.16,2.81.17.7.52,1.25,1.06,1.65.55.4,1.22.6,2.02.6s1.55-.2,2.25-.61c.7-.41,1.2-.97,1.48-1.67.29-.71.44-1.73.44-3.07v-8.42h2.66v15.71h-2.38ZM208.5,161.85v-15.71h2.39v2.23c1.16-1.73,2.82-2.59,5-2.59.95,0,1.82.17,2.61.51.8.34,1.39.79,1.78,1.34.4.55.67,1.21.83,1.96.1.49.15,1.36.15,2.59v9.66h-2.67v-9.56c0-1.08-.1-1.9-.31-2.44-.21-.53-.58-.96-1.1-1.28-.53-.32-1.15-.49-1.86-.49-1.14,0-2.11.36-2.94,1.08-.82.72-1.23,2.09-1.23,4.1v8.58h-2.66ZM235.55,161.85v-1.98c-.99,1.56-2.46,2.34-4.39,2.34-1.25,0-2.4-.34-3.46-1.04-1.05-.69-1.86-1.65-2.45-2.89-.58-1.24-.86-2.66-.86-4.27s.26-2.99.78-4.27c.52-1.28,1.31-2.26,2.35-2.94,1.05-.68,2.22-1.02,3.51-1.02.94,0,1.79.2,2.52.6.74.4,1.34.92,1.81,1.56v-7.79h2.65v21.7h-2.47ZM227.13,154.01c0,2.02.42,3.52,1.27,4.52.85,1,1.85,1.5,3.01,1.5s2.15-.48,2.97-1.43c.81-.95,1.22-2.41,1.22-4.36,0-2.15-.41-3.73-1.24-4.73-.83-1.01-1.85-1.51-3.07-1.51s-2.17.48-2.96,1.45c-.79.97-1.19,2.49-1.19,4.57M251.02,161.85v-21.7h9.62c1.93,0,3.4.2,4.41.59,1.01.39,1.81,1.08,2.42,2.06.6.99.9,2.08.9,3.27,0,1.54-.49,2.83-1.49,3.89-1,1.06-2.54,1.73-4.62,2.02.76.36,1.34.72,1.73,1.08.84.77,1.63,1.73,2.39,2.88l3.77,5.9h-3.61l-2.87-4.52c-.84-1.3-1.53-2.3-2.08-2.99-.54-.69-1.02-1.18-1.46-1.45-.43-.28-.86-.47-1.31-.58-.33-.07-.86-.1-1.6-.1h-3.33v9.63h-2.87ZM253.89,149.74h6.17c1.31,0,2.34-.14,3.08-.41.74-.27,1.3-.71,1.69-1.3.38-.6.58-1.24.58-1.94,0-1.03-.37-1.87-1.12-2.53-.74-.66-1.92-.99-3.53-.99h-6.86v7.18ZM283.28,156.79l2.75.34c-.43,1.61-1.24,2.86-2.41,3.75-1.18.88-2.68,1.33-4.5,1.33-2.3,0-4.12-.71-5.47-2.12-1.35-1.41-2.02-3.4-2.02-5.96s.68-4.7,2.04-6.16c1.36-1.46,3.13-2.19,5.3-2.19s3.82.72,5.15,2.15c1.33,1.43,2,3.45,2,6.04,0,.16,0,.4-.02.71h-11.72c.1,1.73.59,3.05,1.46,3.96.88.92,1.97,1.38,3.28,1.38.97,0,1.81-.26,2.5-.77.69-.51,1.24-1.33,1.64-2.46M274.54,152.48h8.77c-.12-1.32-.46-2.31-1-2.97-.85-1.03-1.95-1.54-3.3-1.54-1.22,0-2.25.41-3.09,1.23-.83.82-1.29,1.92-1.38,3.28M288.89,163.16l2.59.38c.11.8.41,1.38.9,1.75.66.49,1.57.74,2.71.74,1.24,0,2.19-.25,2.86-.74.67-.5,1.12-1.19,1.36-2.07.14-.55.2-1.68.19-3.42-1.16,1.37-2.61,2.06-4.35,2.06-2.16,0-3.83-.78-5.02-2.34-1.18-1.56-1.78-3.43-1.78-5.61,0-1.5.27-2.88.81-4.15.55-1.27,1.33-2.25,2.36-2.94,1.03-.69,2.24-1.03,3.63-1.03,1.85,0,3.38.75,4.59,2.25v-1.89h2.46v13.58c0,2.45-.25,4.18-.75,5.2-.5,1.02-1.29,1.83-2.37,2.42-1.08.59-2.41.89-3.99.89-1.87,0-3.39-.42-4.54-1.27-1.16-.84-1.71-2.11-1.67-3.81M291.09,153.71c0,2.06.41,3.57,1.23,4.51.82.95,1.84,1.42,3.08,1.42s2.25-.47,3.08-1.41c.83-.94,1.24-2.42,1.24-4.44s-.43-3.37-1.28-4.35c-.85-.98-1.88-1.46-3.09-1.46s-2.19.48-3.02,1.44c-.83.96-1.24,2.39-1.24,4.28M316.99,156.79l2.75.34c-.43,1.61-1.24,2.86-2.41,3.75-1.18.88-2.68,1.33-4.5,1.33-2.3,0-4.12-.71-5.47-2.12-1.35-1.41-2.02-3.4-2.02-5.96s.68-4.7,2.04-6.16c1.36-1.46,3.13-2.19,5.3-2.19s3.82.72,5.15,2.15c1.33,1.43,2,3.45,2,6.04,0,.16,0,.4-.02.71h-11.72c.1,1.73.58,3.05,1.46,3.96.88.92,1.97,1.38,3.28,1.38.98,0,1.81-.26,2.5-.77.69-.51,1.24-1.33,1.64-2.46M308.25,152.48h8.77c-.12-1.32-.45-2.31-1-2.97-.85-1.03-1.95-1.54-3.3-1.54-1.22,0-2.25.41-3.09,1.23-.83.82-1.29,1.92-1.38,3.28M323.03,140.16h2.66v21.7h-2.66v-21.7ZM335.64,159.47l.38,2.35c-.75.16-1.42.24-2.01.24-.97,0-1.72-.15-2.25-.46-.53-.3-.9-.71-1.12-1.21-.22-.5-.33-1.55-.33-3.14v-9.04h-1.96v-2.07h1.96v-3.89l2.65-1.6v5.49h2.68v2.07h-2.68v9.19c0,.76.05,1.25.14,1.47.1.22.25.39.46.52.21.13.52.19.91.19.3,0,.69-.04,1.17-.11M349,156.79l2.75.34c-.43,1.61-1.24,2.86-2.41,3.75-1.18.88-2.68,1.33-4.5,1.33-2.3,0-4.12-.71-5.47-2.12-1.35-1.41-2.02-3.4-2.02-5.96s.68-4.7,2.04-6.16c1.36-1.46,3.13-2.19,5.3-2.19s3.82.72,5.15,2.15c1.33,1.43,2,3.45,2,6.04,0,.16,0,.4-.02.71h-11.72c.1,1.73.59,3.05,1.47,3.96.88.92,1.97,1.38,3.28,1.38.98,0,1.81-.26,2.5-.77.69-.51,1.24-1.33,1.64-2.46M340.26,152.48h8.77c-.11-1.32-.45-2.31-1-2.97-.85-1.03-1.95-1.54-3.3-1.54-1.22,0-2.25.41-3.09,1.23-.83.82-1.29,1.92-1.39,3.28M365.36,156.09l2.62.34c-.28,1.8-1.02,3.22-2.2,4.24-1.18,1.02-2.63,1.53-4.34,1.53-2.15,0-3.88-.7-5.18-2.11-1.31-1.4-1.96-3.42-1.96-6.05,0-1.7.28-3.18.84-4.46.57-1.27,1.42-2.23,2.57-2.86,1.15-.64,2.4-.95,3.75-.95,1.71,0,3.11.43,4.19,1.3,1.09.86,1.78,2.09,2.09,3.68l-2.59.4c-.25-1.06-.68-1.85-1.31-2.38-.63-.53-1.38-.8-2.27-.8-1.34,0-2.44.48-3.27,1.45-.84.96-1.26,2.48-1.26,4.56s.4,3.65,1.22,4.61c.81.95,1.86,1.43,3.17,1.43,1.05,0,1.92-.32,2.62-.96.7-.64,1.15-1.63,1.33-2.96M370.26,161.85v-21.7h2.66v7.79c1.24-1.44,2.81-2.16,4.71-2.16,1.16,0,2.17.23,3.03.69.86.45,1.48,1.09,1.84,1.9.37.81.55,1.98.55,3.52v9.96h-2.67v-9.96c0-1.33-.29-2.3-.86-2.9-.58-.61-1.39-.91-2.45-.91-.79,0-1.53.21-2.23.62-.7.41-1.19.97-1.49,1.67-.3.7-.44,1.67-.44,2.9v8.6h-2.66ZM387.11,161.85v-15.71h2.4v2.23c1.16-1.73,2.82-2.59,5-2.59.95,0,1.82.17,2.61.51.8.34,1.39.79,1.78,1.34.4.55.67,1.21.83,1.96.1.49.15,1.36.15,2.59v9.66h-2.67v-9.56c0-1.08-.1-1.9-.31-2.44-.21-.53-.58-.96-1.1-1.28-.53-.32-1.15-.49-1.86-.49-1.14,0-2.11.36-2.94,1.08-.82.72-1.23,2.09-1.23,4.1v8.58h-2.66ZM403.98,140.16h2.67v3.07h-2.67v-3.07ZM403.98,146.14h2.67v15.71h-2.67v-15.71ZM410.71,161.85v-21.7h2.67v12.37l6.3-6.39h3.45l-6.01,5.83,6.62,9.89h-3.29l-5.19-8.04-1.88,1.81v6.23h-2.67Z"/>
  <g>
    <path class="cls-7" d="M696.23,155.23h-1.52v-5.5s4.81,0,4.81,0c.67.84,1.18,1.72,1.52,2.61.34.9.51,1.82.51,2.77,0,1.28-.27,2.43-.82,3.48-.55,1.04-1.34,1.83-2.37,2.36-1.03.53-2.19.8-3.47.8s-2.44-.26-3.54-.79c-1.09-.53-1.91-1.29-2.44-2.28-.53-.99-.8-2.13-.8-3.43,0-.94.15-1.79.46-2.55.3-.76.73-1.36,1.27-1.79.54-.43,1.25-.76,2.13-.98l.42,1.55c-.66.19-1.18.44-1.56.73-.38.29-.68.7-.91,1.24-.23.54-.34,1.13-.34,1.79,0,.79.12,1.47.36,2.04.24.57.55,1.04.94,1.39.39.35.82.62,1.29.82.8.33,1.67.5,2.62.5,1.16,0,2.13-.2,2.91-.6.78-.4,1.36-.98,1.74-1.74.38-.76.57-1.57.57-2.43,0-.74-.14-1.47-.43-2.18-.29-.71-.59-1.25-.92-1.61h-2.42v3.82Z"/>
    <path class="cls-7" d="M701.32,147.4h-9.41v-1.43h1.32c-.46-.29-.83-.69-1.11-1.18s-.42-1.05-.42-1.68c0-.7.15-1.27.44-1.71.29-.45.69-.76,1.21-.94-1.1-.74-1.65-1.71-1.65-2.91,0-.93.26-1.65.78-2.15.52-.5,1.31-.75,2.39-.75h6.46v1.59h-5.93c-.64,0-1.1.05-1.38.16-.28.1-.51.29-.68.56-.17.27-.26.59-.26.96,0,.66.22,1.21.66,1.65.44.44,1.15.66,2.11.66h5.47v1.59h-6.11c-.71,0-1.24.13-1.59.39-.35.26-.53.69-.53,1.28,0,.45.12.87.35,1.25.24.38.58.66,1.04.83.46.17,1.11.26,1.97.26h4.88v1.59Z"/>
    <path class="cls-7" d="M701.32,130.81v1.48h-12.99v-1.6h4.63c-.84-.67-1.27-1.53-1.27-2.58,0-.58.12-1.13.35-1.64s.56-.94.98-1.28c.42-.33.93-.59,1.53-.78.6-.19,1.23-.28,1.91-.28,1.61,0,2.86.4,3.74,1.2.88.8,1.32,1.76,1.32,2.87s-.46,1.98-1.39,2.61h1.18ZM696.55,130.83c1.13,0,1.94-.15,2.45-.46.82-.5,1.23-1.18,1.23-2.04,0-.7-.3-1.3-.91-1.81-.61-.51-1.51-.76-2.71-.76s-2.14.24-2.72.73c-.58.49-.88,1.08-.88,1.77s.3,1.3.91,1.81c.61.51,1.48.76,2.63.76"/>
    <polygon class="cls-7" points="701.32 121.93 688.33 121.93 688.33 120.21 693.67 120.21 693.67 113.46 688.33 113.46 688.33 111.74 701.32 111.74 701.32 113.46 695.2 113.46 695.2 120.21 701.32 120.21 701.32 121.93"/>
  </g>
</svg>